<svg width="17" height="17" viewBox="0 0 17 17" fill="none" xmlns="http://www.w3.org/2000/svg">
<path fill-rule="evenodd" clip-rule="evenodd" d="M10.4238 12.7237C9.39245 13.3322 8.18741 13.6818 6.90004 13.6818C3.08924 13.6818 0 10.619 0 6.84088C0 3.06275 3.08924 0 6.90004 0C10.7108 0 13.8001 3.06275 13.8001 6.84088C13.8001 8.19303 13.4044 9.45353 12.7216 10.5148L16.5313 14.2919C17.1562 14.9114 17.1562 15.9158 16.5313 16.5354C15.9065 17.1549 14.8934 17.1549 14.2685 16.5354L10.4238 12.7237ZM10.9251 6.84088C10.9251 9.04477 9.12298 10.8314 6.90004 10.8314C4.6771 10.8314 2.87502 9.04477 2.87502 6.84088C2.87502 4.637 4.6771 2.85037 6.90004 2.85037C9.12298 2.85037 10.9251 4.637 10.9251 6.84088Z" fill="white"/>
</svg>
